<svg xmlns="http://www.w3.org/2000/svg" width="122.725" height="99.064" viewBox="0 0 122.725 99.064">
  <g id="组_50" data-name="组 50" transform="translate(-15 -15)">
    <g id="组_5" data-name="组 5">
      <g id="组_3" data-name="组 3">
        <g id="组_1" data-name="组 1">
          <path id="路径_1" data-name="路径 1" d="M41.691,28.094a2.6,2.6,0,0,0,.778,1.855.289.289,0,0,1,.026.042l33.394,33.3,11.8,11.756L84.538,78.2a2.705,2.705,0,0,0,3.833,3.819l8.438-8.445,8.36,8.419a2.719,2.719,0,0,0,3.832,0,2.692,2.692,0,0,0,0-3.819l-8.369-8.424,8.448-8.456a2.705,2.705,0,0,0-3.833-3.819l-3.291,3.29L90.169,49.013,56.816,15.752a2.666,2.666,0,0,0-2.476-.686H44.314a2.618,2.618,0,0,0-2.623,2.609Z" fill="#f1f1f1"/>
        </g>
        <g id="组_2" data-name="组 2" transform="translate(120.758 -88.468) rotate(90)">
          <path id="路径_2" data-name="路径 2" d="M104.613,29.285a2.625,2.625,0,0,0,.775,1.861.3.3,0,0,1,.027.042L138.691,64.6l11.756,11.8-3.138,3.165a2.72,2.72,0,0,0,0,3.833,2.692,2.692,0,0,0,3.819,0l8.409-8.475,8.329,8.449a2.705,2.705,0,0,0,3.819-3.833l-8.34-8.454,8.419-8.485a2.72,2.72,0,0,0,0-3.833,2.692,2.692,0,0,0-3.819,0l-3.28,3.3L152.92,50.277,119.685,16.9a2.643,2.643,0,0,0-2.467-.689h-9.991a2.619,2.619,0,0,0-2.614,2.618Z" fill="#fff"/>
        </g>
      </g>
      <g id="组_4" data-name="组 4">
        <path id="路径_3" data-name="路径 3" d="M15,113.647h3.581v-5.768h5.078V104.9H18.581v-3.268H24.5V98.647H15Zm14.083,0h3.581v-5H34.4c3.157,0,5.879-1.556,5.879-5.117,0-3.7-2.7-4.882-5.957-4.882H29.083Zm3.581-7.819v-4.335h1.458c1.719,0,2.682.52,2.682,2.037,0,1.472-.84,2.3-2.584,2.3Zm16.785,8.236c3.6,0,5.684-2.174,5.684-4.726a4.277,4.277,0,0,0-2.943-4.252l-1.856-.768c-1.321-.547-2.246-.879-2.246-1.751,0-.814.664-1.27,1.764-1.27a4.71,4.71,0,0,1,3.06,1.185L54.69,100.2a6.91,6.91,0,0,0-4.837-1.966c-3.164,0-5.4,2.005-5.4,4.564a4.523,4.523,0,0,0,3.021,4.251l1.9.833c1.282.567,2.1.86,2.1,1.752,0,.833-.625,1.354-1.94,1.354a5.776,5.776,0,0,1-3.6-1.582l-2.044,2.526A8.332,8.332,0,0,0,49.449,114.064Zm10.3-.417h3.2v-5.13a51.63,51.63,0,0,0-.456-5.228h.078l1.2,3.594,2.025,5.495h1.96l2-5.495,1.237-3.594h.1a45.165,45.165,0,0,0-.482,5.215v5.143h3.262v-15h-3.88l-2.285,6.465c-.28.866-.514,1.817-.814,2.722h-.1c-.28-.9-.521-1.856-.82-2.722l-2.357-6.465H59.75Zm22.1.417a4.867,4.867,0,0,0,3.262-1.419h.1l.241,1h2.9v-6.458c0-3.568-1.66-5.208-4.6-5.208a9.5,9.5,0,0,0-4.9,1.5l1.243,2.337a6.243,6.243,0,0,1,2.982-1c1.159,0,1.634.54,1.719,1.458-4.44.482-6.322,1.784-6.322,4.186A3.323,3.323,0,0,0,81.848,114.064Zm1.224-2.754c-.742,0-1.224-.332-1.224-1,0-.821.723-1.5,2.943-1.784v1.862A2.235,2.235,0,0,1,83.072,111.31Zm13.38,2.754c3.1,0,4.739-1.614,4.739-3.743,0-2.1-1.582-2.937-3-3.49-1.178-.43-2.161-.7-2.161-1.387,0-.553.384-.84,1.2-.84a4.289,4.289,0,0,1,2.357.984l1.582-2.142a6.481,6.481,0,0,0-4.063-1.465c-2.656,0-4.4,1.465-4.4,3.626,0,1.94,1.543,2.878,2.9,3.431,1.159.469,2.259.794,2.259,1.491,0,.573-.4.918-1.341.918a4.907,4.907,0,0,1-2.878-1.224l-1.582,2.246A7.375,7.375,0,0,0,96.452,114.064Zm13.081,0a8.286,8.286,0,0,0,2.578-.417l-.56-2.578a3.349,3.349,0,0,1-1.042.215c-.84,0-1.439-.495-1.439-1.758v-4.342h2.683V102.4H109.07V99.383h-2.936l-.4,3.014-1.757.144v2.643h1.536v4.381C105.509,112.248,106.674,114.064,109.533,114.064Zm11.426,0a7.347,7.347,0,0,0,4.063-1.3l-1.179-2.168a4.553,4.553,0,0,1-2.4.748,2.619,2.619,0,0,1-2.838-2.285h6.679a6.721,6.721,0,0,0,.163-1.536c0-3.164-1.6-5.547-4.883-5.547-2.741,0-5.4,2.285-5.4,6.028C115.159,111.87,117.678,114.064,120.959,114.064Zm-2.415-7.337a2.127,2.127,0,0,1,2.077-2.025c1.3,0,1.8.866,1.8,2.025Zm11.342,6.92h3.562v-6.5a2.733,2.733,0,0,1,2.435-2.038,5.047,5.047,0,0,1,1.263.176l.579-2.885a1.762,1.762,0,0,0-1.38-.416,3.891,3.891,0,0,0-3.242,2.265h-.059l-.26-1.849h-2.9Z" fill="#fff"/>
      </g>
    </g>
  </g>
</svg>
